STARTFONT 2.1
COMMENT  
COMMENT  (c) Copyright 1994 by Star Division GmbH
COMMENT  
COMMENT  WARNING:  This bdf file was generated from a font server using
COMMENT  fstobdf.  The resulting font is subject to the same copyright,
COMMENT  license, and trademark restrictions as the original font.  The
COMMENT  authors and distributors of fstobdf disclaim all liability for
COMMENT  misuse of the program or its output.
COMMENT  
FONT -Star Division-starmath-medium-r-normal--10-100-75-75-p-0-iso8859-1
SIZE 10 75 75
FONTBOUNDINGBOX 19 14 -2 -5
STARTPROPERTIES 54
FONT "-Star Division-starmath-medium-r-normal--10-100-75-75-p-0-iso8859-1"
FONT_TYPE "TrueType"
TECHNOLOGY "TrueType"
FOUNDRY ""
FAMILY_NAME "starmath"
WEIGHT_NAME "medium"
SLANT "r"
SETWIDTH_NAME "normal"
ADD_STYLE_NAME ""
PIXEL_SIZE 10
POINT_SIZE 100
RESOLUTION_X 75
RESOLUTION_Y 75
SPACING "p"
AVERAGE_WIDTH 60
CHARSET_REGISTRY "iso8859"
CHARSET_ENCODING "1"
AVG_LOWERCASE_WIDTH 5
RAW_AVG_LOWERCASE_WIDTH 500
SUBSCRIPT_X 0
SUBSCRIPT_Y 4
SUBSCRIPT_SIZE 5
RAW_SUBSCRIPT_X 0
RAW_SUBSCRIPT_Y 499
RAW_SUBSCRIPT_SIZE 500
SUPERSCRIPT_X 0
SUPERSCRIPT_Y 3
SUPERSCRIPT_SIZE 5
RAW_SUPERSCRIPT_X 0
RAW_SUPERSCRIPT_Y 250
RAW_SUPERSCRIPT_SIZE 500
STRIKEOUT_ASCENT 3
STRIKEOUT_DESCENT -2
RAW_STRIKEOUT_ASCENT 299
RAW_STRIKEOUT_DESCENT -249
RELATIVE_SETWIDTH 50
RELATIVE_WEIGHT 40
_GALLIUM_PANOSE "5 11 5 0 0 0 0 0 0 0"
UNDERLINE_POSITION 0
UNDERLINE_THICKNESS 1
RAW_UNDERLINE_POSITION 99
RAW_UNDERLINE_THICKNESS 50
ITALIC_ANGLE 0
RAW_PIXEL_SIZE 1000
RAW_POINT_SIZE 9636
FONT_ASCENT 9
FONT_DESCENT 3
RAW_ASCENT 863
RAW_DESCENT 325
RAW_AVERAGE_WIDTH 6260
COPYRIGHT "(c) Copyright 1994 by Star Division GmbH"
FACE_NAME "StarMath"
NOTICE "Created by Type-Designer 2.5"
DEFAULT_CHAR 0
ENDPROPERTIES
CHARS 223
STARTCHAR exclam
ENCODING 33
SWIDTH 288 0
DWIDTH 3 0
BBX 1 7 1 0
ATTRIBUTES 0115
BITMAP
80
80
80
80
80
00
80
ENDCHAR
STARTCHAR quotedbl
ENCODING 34
SWIDTH 384 0
DWIDTH 4 0
BBX 3 2 0 5
ATTRIBUTES 0162
BITMAP
a0
a0
ENDCHAR
STARTCHAR numbersign
ENCODING 35
SWIDTH 576 0
DWIDTH 6 0
BBX 5 7 0 0
ATTRIBUTES 022b
BITMAP
48
48
f8
48
f8
90
90
ENDCHAR
STARTCHAR dollar
ENCODING 36
SWIDTH 960 0
DWIDTH 10 0
BBX 10 7 0 0
ATTRIBUTES 03c0
BITMAP
6800
a800
b000
d000
3fc0
3340
3fc0
ENDCHAR
STARTCHAR percent
ENCODING 37
SWIDTH 864 0
DWIDTH 9 0
BBX 8 7 0 0
ATTRIBUTES 0340
BITMAP
64
a4
a8
c8
17
25
27
ENDCHAR
STARTCHAR ampersand
ENCODING 38
SWIDTH 768 0
DWIDTH 8 0
BBX 7 7 0 0
ATTRIBUTES 0309
BITMAP
38
28
30
64
94
98
e6
ENDCHAR
STARTCHAR apostrophe
ENCODING 39
SWIDTH 672 0
DWIDTH 7 0
BBX 7 5 0 0
ATTRIBUTES 02c8
BITMAP
40
be
92
f2
2c
ENDCHAR
STARTCHAR parenleft
ENCODING 40
SWIDTH 384 0
DWIDTH 4 0
BBX 2 11 1 -2
ATTRIBUTES 0153
BITMAP
40
40
40
80
80
80
80
80
40
40
40
ENDCHAR
STARTCHAR parenright
ENCODING 41
SWIDTH 384 0
DWIDTH 4 0
BBX 2 11 1 -2
ATTRIBUTES 0153
BITMAP
80
80
80
40
40
40
40
40
40
80
80
ENDCHAR
STARTCHAR asterisk
ENCODING 42
SWIDTH 384 0
DWIDTH 4 0
BBX 3 3 0 4
ATTRIBUTES 0185
BITMAP
e0
40
60
ENDCHAR
STARTCHAR plus
ENCODING 43
SWIDTH 576 0
DWIDTH 6 0
BBX 5 5 0 1
ATTRIBUTES 0247
BITMAP
20
20
f8
20
20
ENDCHAR
STARTCHAR comma
ENCODING 44
SWIDTH 288 0
DWIDTH 3 0
BBX 1 2 1 -1
ATTRIBUTES 0115
BITMAP
80
80
ENDCHAR
STARTCHAR minus
ENCODING 45
SWIDTH 288 0
DWIDTH 3 0
BBX 3 1 0 2
ATTRIBUTES 014c
BITMAP
e0
ENDCHAR
STARTCHAR period
ENCODING 46
SWIDTH 288 0
DWIDTH 3 0
BBX 1 1 1 0
ATTRIBUTES 0115
BITMAP
80
ENDCHAR
STARTCHAR slash
ENCODING 47
SWIDTH 288 0
DWIDTH 3 0
BBX 3 7 0 0
ATTRIBUTES 0115
BITMAP
20
20
40
40
40
80
80
ENDCHAR
STARTCHAR 0
ENCODING 48
SWIDTH 576 0
DWIDTH 6 0
BBX 5 7 0 0
ATTRIBUTES 022b
BITMAP
70
88
88
88
88
88
70
ENDCHAR
STARTCHAR 1
ENCODING 49
SWIDTH 576 0
DWIDTH 6 0
BBX 3 7 1 0
ATTRIBUTES 022b
BITMAP
20
e0
20
20
20
20
20
ENDCHAR
STARTCHAR 2
ENCODING 50
SWIDTH 576 0
DWIDTH 6 0
BBX 5 7 0 0
ATTRIBUTES 022b
BITMAP
70
48
08
10
20
40
f8
ENDCHAR
STARTCHAR 3
ENCODING 51
SWIDTH 576 0
DWIDTH 6 0
BBX 5 7 0 0
ATTRIBUTES 022b
BITMAP
70
48
08
30
08
48
70
ENDCHAR
STARTCHAR 4
ENCODING 52
SWIDTH 576 0
DWIDTH 6 0
BBX 5 7 0 0
ATTRIBUTES 022b
BITMAP
10
30
50
90
f8
10
10
ENDCHAR
STARTCHAR 5
ENCODING 53
SWIDTH 576 0
DWIDTH 6 0
BBX 5 7 0 0
ATTRIBUTES 022b
BITMAP
78
40
70
48
08
48
70
ENDCHAR
STARTCHAR 6
ENCODING 54
SWIDTH 576 0
DWIDTH 6 0
BBX 5 7 0 0
ATTRIBUTES 022b
BITMAP
70
88
f0
88
88
88
70
ENDCHAR
STARTCHAR 7
ENCODING 55
SWIDTH 576 0
DWIDTH 6 0
BBX 5 7 0 0
ATTRIBUTES 022b
BITMAP
f8
10
10
20
20
20
40
ENDCHAR
STARTCHAR 8
ENCODING 56
SWIDTH 576 0
DWIDTH 6 0
BBX 5 7 0 0
ATTRIBUTES 022b
BITMAP
70
88
88
70
88
88
70
ENDCHAR
STARTCHAR 9
ENCODING 57
SWIDTH 576 0
DWIDTH 6 0
BBX 5 7 0 0
ATTRIBUTES 022b
BITMAP
70
88
88
88
78
88
70
ENDCHAR
STARTCHAR colon
ENCODING 58
SWIDTH 288 0
DWIDTH 3 0
BBX 1 5 1 0
ATTRIBUTES 0115
BITMAP
80
00
00
00
80
ENDCHAR
STARTCHAR semicolon
ENCODING 59
SWIDTH 288 0
DWIDTH 3 0
BBX 1 6 1 -1
ATTRIBUTES 0115
BITMAP
80
00
00
00
80
80
ENDCHAR
STARTCHAR less
ENCODING 60
SWIDTH 576 0
DWIDTH 6 0
BBX 5 5 0 1
ATTRIBUTES 0247
BITMAP
08
70
80
70
08
ENDCHAR
STARTCHAR equal
ENCODING 61
SWIDTH 768 0
DWIDTH 8 0
BBX 6 3 1 1
ATTRIBUTES 031a
BITMAP
fc
00
fc
ENDCHAR
STARTCHAR greater
ENCODING 62
SWIDTH 576 0
DWIDTH 6 0
BBX 5 5 0 1
ATTRIBUTES 0247
BITMAP
80
70
18
60
80
ENDCHAR
STARTCHAR question
ENCODING 63
SWIDTH 576 0
DWIDTH 6 0
BBX 5 7 0 0
ATTRIBUTES 022b
BITMAP
20
20
20
40
80
88
70
ENDCHAR
STARTCHAR at
ENCODING 64
SWIDTH 768 0
DWIDTH 8 0
BBX 6 6 1 0
ATTRIBUTES 031a
BITMAP
08
08
fc
10
fc
40
ENDCHAR
STARTCHAR A
ENCODING 65
SWIDTH 768 0
DWIDTH 8 0
BBX 7 6 0 0
ATTRIBUTES 031a
BITMAP
10
10
10
fe
10
10
ENDCHAR
STARTCHAR B
ENCODING 66
SWIDTH 768 0
DWIDTH 8 0
BBX 6 1 1 2
ATTRIBUTES 031a
BITMAP
fc
ENDCHAR
STARTCHAR C
ENCODING 67
SWIDTH 768 0
DWIDTH 8 0
BBX 4 4 2 1
ATTRIBUTES 02d3
BITMAP
20
b0
e0
b0
ENDCHAR
STARTCHAR D
ENCODING 68
SWIDTH 768 0
DWIDTH 8 0
BBX 6 6 1 0
ATTRIBUTES 031a
BITMAP
84
48
30
30
48
84
ENDCHAR
STARTCHAR E
ENCODING 69
SWIDTH 576 0
DWIDTH 6 0
BBX 1 1 2 2
ATTRIBUTES 0242
BITMAP
80
ENDCHAR
STARTCHAR F
ENCODING 70
SWIDTH 768 0
DWIDTH 8 0
BBX 6 5 1 0
ATTRIBUTES 031a
BITMAP
20
00
fc
00
20
ENDCHAR
STARTCHAR G
ENCODING 71
SWIDTH 768 0
DWIDTH 8 0
BBX 7 6 0 0
ATTRIBUTES 031a
BITMAP
10
10
fe
10
10
7e
ENDCHAR
STARTCHAR H
ENCODING 72
SWIDTH 768 0
DWIDTH 8 0
BBX 7 6 0 0
ATTRIBUTES 031a
BITMAP
7e
10
10
fe
10
10
ENDCHAR
STARTCHAR I
ENCODING 73
SWIDTH 768 0
DWIDTH 8 0
BBX 6 6 1 0
ATTRIBUTES 031a
BITMAP
30
e8
a4
fc
a8
70
ENDCHAR
STARTCHAR J
ENCODING 74
SWIDTH 768 0
DWIDTH 8 0
BBX 6 6 1 0
ATTRIBUTES 031a
BITMAP
30
48
84
fc
48
70
ENDCHAR
STARTCHAR K
ENCODING 75
SWIDTH 768 0
DWIDTH 8 0
BBX 6 6 1 0
ATTRIBUTES 031a
BITMAP
70
48
f4
b4
d8
30
ENDCHAR
STARTCHAR L
ENCODING 76
SWIDTH 768 0
DWIDTH 8 0
BBX 6 6 1 0
ATTRIBUTES 031a
BITMAP
30
48
94
a4
c8
30
ENDCHAR
STARTCHAR M
ENCODING 77
SWIDTH 768 0
DWIDTH 8 0
BBX 6 6 1 0
ATTRIBUTES 031a
BITMAP
30
48
84
a4
c8
30
ENDCHAR
STARTCHAR N
ENCODING 78
SWIDTH 768 0
DWIDTH 8 0
BBX 6 6 1 0
ATTRIBUTES 031a
BITMAP
84
84
84
84
48
30
ENDCHAR
STARTCHAR O
ENCODING 79
SWIDTH 768 0
DWIDTH 8 0
BBX 6 6 1 0
ATTRIBUTES 031a
BITMAP
30
48
84
84
84
84
ENDCHAR
STARTCHAR P
ENCODING 80
SWIDTH 768 0
DWIDTH 8 0
BBX 6 5 1 1
ATTRIBUTES 031a
BITMAP
0c
30
c0
30
0c
ENDCHAR
STARTCHAR Q
ENCODING 81
SWIDTH 768 0
DWIDTH 8 0
BBX 6 5 1 1
ATTRIBUTES 031a
BITMAP
80
70
1c
60
80
ENDCHAR
STARTCHAR R
ENCODING 82
SWIDTH 768 0
DWIDTH 8 0
BBX 6 6 1 0
ATTRIBUTES 031a
BITMAP
0c
30
c0
30
0c
fc
ENDCHAR
STARTCHAR S
ENCODING 83
SWIDTH 768 0
DWIDTH 8 0
BBX 6 6 1 0
ATTRIBUTES 031a
BITMAP
80
70
1c
60
80
fc
ENDCHAR
STARTCHAR T
ENCODING 84
SWIDTH 768 0
DWIDTH 8 0
BBX 6 6 1 0
ATTRIBUTES 031a
BITMAP
1c
20
60
98
70
0c
ENDCHAR
STARTCHAR U
ENCODING 85
SWIDTH 768 0
DWIDTH 8 0
BBX 6 6 1 0
ATTRIBUTES 031a
BITMAP
c0
30
18
6c
30
c0
ENDCHAR
STARTCHAR V
ENCODING 86
SWIDTH 1152 0
DWIDTH 12 0
BBX 9 6 1 0
ATTRIBUTES 045d
BITMAP
0c80
3300
4c00
4800
3600
0d80
ENDCHAR
STARTCHAR W
ENCODING 87
SWIDTH 1152 0
DWIDTH 12 0
BBX 9 6 1 0
ATTRIBUTES 045d
BITMAP
9000
6c00
1b00
1b00
6c00
9000
ENDCHAR
STARTCHAR X
ENCODING 88
SWIDTH 768 0
DWIDTH 8 0
BBX 6 2 1 3
ATTRIBUTES 031a
BITMAP
9c
e4
ENDCHAR
STARTCHAR Y
ENCODING 89
SWIDTH 768 0
DWIDTH 8 0
BBX 6 4 1 1
ATTRIBUTES 031a
BITMAP
9c
e4
00
fc
ENDCHAR
STARTCHAR Z
ENCODING 90
SWIDTH 768 0
DWIDTH 8 0
BBX 6 4 1 1
ATTRIBUTES 031a
BITMAP
0c
0c
bc
c0
ENDCHAR
STARTCHAR bracketleft
ENCODING 91
SWIDTH 768 0
DWIDTH 8 0
BBX 6 7 1 0
ATTRIBUTES 031a
BITMAP
40
f8
d8
d8
fc
00
fc
ENDCHAR
STARTCHAR backslash
ENCODING 92
SWIDTH 768 0
DWIDTH 8 0
BBX 6 4 1 1
ATTRIBUTES 031a
BITMAP
fc
00
fc
fc
ENDCHAR
STARTCHAR bracketright
ENCODING 93
SWIDTH 672 0
DWIDTH 7 0
BBX 6 5 0 0
ATTRIBUTES 02c8
BITMAP
40
b0
90
b0
4c
ENDCHAR
STARTCHAR asciicircum
ENCODING 94
SWIDTH 480 0
DWIDTH 5 0
BBX 5 8 0 -1
ATTRIBUTES 01ee
BITMAP
70
48
38
48
88
88
90
60
ENDCHAR
STARTCHAR underscore
ENCODING 95
SWIDTH 768 0
DWIDTH 8 0
BBX 6 6 1 0
ATTRIBUTES 031a
BITMAP
3c
40
80
80
40
3c
ENDCHAR
STARTCHAR grave
ENCODING 96
SWIDTH 768 0
DWIDTH 8 0
BBX 6 6 1 0
ATTRIBUTES 031a
BITMAP
f0
08
04
04
08
f0
ENDCHAR
STARTCHAR a
ENCODING 97
SWIDTH 768 0
DWIDTH 8 0
BBX 6 6 1 0
ATTRIBUTES 031a
BITMAP
7c
40
80
80
7c
fc
ENDCHAR
STARTCHAR b
ENCODING 98
SWIDTH 768 0
DWIDTH 8 0
BBX 6 6 1 0
ATTRIBUTES 031a
BITMAP
f8
04
04
04
f8
fc
ENDCHAR
STARTCHAR c
ENCODING 99
SWIDTH 768 0
DWIDTH 8 0
BBX 6 7 1 0
ATTRIBUTES 031a
BITMAP
04
3c
50
90
a0
a0
7c
ENDCHAR
STARTCHAR d
ENCODING 100
SWIDTH 768 0
DWIDTH 8 0
BBX 6 7 1 0
ATTRIBUTES 031a
BITMAP
08
f0
18
24
24
48
f0
ENDCHAR
STARTCHAR e
ENCODING 101
SWIDTH 768 0
DWIDTH 8 0
BBX 6 7 1 0
ATTRIBUTES 031a
BITMAP
04
7c
90
90
90
7c
fc
ENDCHAR
STARTCHAR f
ENCODING 102
SWIDTH 768 0
DWIDTH 8 0
BBX 6 7 1 0
ATTRIBUTES 031a
BITMAP
08
f8
14
14
14
f8
fc
ENDCHAR
STARTCHAR g
ENCODING 103
SWIDTH 672 0
DWIDTH 7 0
BBX 5 6 0 0
ATTRIBUTES 02c8
BITMAP
78
80
80
f8
80
78
ENDCHAR
STARTCHAR h
ENCODING 104
SWIDTH 672 0
DWIDTH 7 0
BBX 5 8 0 -1
ATTRIBUTES 02c8
BITMAP
08
78
90
90
f8
a0
78
80
ENDCHAR
STARTCHAR i
ENCODING 105
SWIDTH 672 0
DWIDTH 7 0
BBX 5 6 0 0
ATTRIBUTES 02c8
BITMAP
78
80
80
f8
80
78
ENDCHAR
STARTCHAR j
ENCODING 106
SWIDTH 576 0
DWIDTH 6 0
BBX 5 7 0 0
ATTRIBUTES 0224
BITMAP
f8
08
08
78
08
08
f8
ENDCHAR
STARTCHAR k
ENCODING 107
SWIDTH 480 0
DWIDTH 5 0
BBX 4 5 0 0
ATTRIBUTES 01b6
BITMAP
e0
10
70
10
e0
ENDCHAR
STARTCHAR l
ENCODING 108
SWIDTH 864 0
DWIDTH 9 0
BBX 6 7 0 0
ATTRIBUTES 0336
BITMAP
88
88
4c
a8
98
8c
44
ENDCHAR
STARTCHAR m
ENCODING 109
SWIDTH 672 0
DWIDTH 7 0
BBX 6 8 0 -1
ATTRIBUTES 02ae
BITMAP
64
98
84
08
0c
04
44
38
ENDCHAR
STARTCHAR n
ENCODING 110
SWIDTH 768 0
DWIDTH 8 0
BBX 7 7 0 0
ATTRIBUTES 031a
BITMAP
6c
92
92
5c
54
14
e6
ENDCHAR
STARTCHAR o
ENCODING 111
SWIDTH 960 0
DWIDTH 10 0
BBX 7 7 0 -2
ATTRIBUTES 03da
BITMAP
40
5e
a2
d6
d8
c0
c0
ENDCHAR
STARTCHAR p
ENCODING 112
SWIDTH 480 0
DWIDTH 5 0
BBX 5 9 0 -2
ATTRIBUTES 01f4
BITMAP
18
10
30
20
20
20
20
40
c0
ENDCHAR
STARTCHAR q
ENCODING 113
SWIDTH 768 0
DWIDTH 8 0
BBX 6 8 1 -2
ATTRIBUTES 031a
BITMAP
04
08
28
30
30
7c
08
08
ENDCHAR
STARTCHAR r
ENCODING 114
SWIDTH 768 0
DWIDTH 8 0
BBX 6 6 1 0
ATTRIBUTES 031a
BITMAP
10
08
38
48
38
10
ENDCHAR
STARTCHAR s
ENCODING 115
SWIDTH 384 0
DWIDTH 4 0
BBX 1 9 1 -1
ATTRIBUTES 018d
BITMAP
80
80
80
80
80
80
80
80
80
ENDCHAR
STARTCHAR t
ENCODING 116
SWIDTH 576 0
DWIDTH 6 0
BBX 3 9 1 -1
ATTRIBUTES 0242
BITMAP
a0
a0
a0
a0
a0
a0
a0
a0
a0
ENDCHAR
STARTCHAR u
ENCODING 117
SWIDTH 672 0
DWIDTH 7 0
BBX 7 7 0 0
ATTRIBUTES 0292
BITMAP
10
10
10
10
10
10
fe
ENDCHAR
STARTCHAR v
ENCODING 118
SWIDTH 960 0
DWIDTH 10 0
BBX 8 1 0 0
ATTRIBUTES 03e8
BITMAP
91
ENDCHAR
STARTCHAR w
ENCODING 119
SWIDTH 960 0
DWIDTH 10 0
BBX 8 1 0 3
ATTRIBUTES 03e8
BITMAP
89
ENDCHAR
STARTCHAR x
ENCODING 120
SWIDTH 960 0
DWIDTH 10 0
BBX 1 8 3 -1
ATTRIBUTES 03e8
BITMAP
80
00
00
80
00
00
00
80
ENDCHAR
STARTCHAR y
ENCODING 121
SWIDTH 960 0
DWIDTH 10 0
BBX 6 6 1 0
ATTRIBUTES 03e8
BITMAP
04
00
10
00
00
80
ENDCHAR
STARTCHAR z
ENCODING 122
SWIDTH 960 0
DWIDTH 10 0
BBX 6 6 1 0
ATTRIBUTES 03e8
BITMAP
80
00
10
00
00
04
ENDCHAR
STARTCHAR braceleft
ENCODING 123
SWIDTH 864 0
DWIDTH 9 0
BBX 7 3 1 1
ATTRIBUTES 0388
BITMAP
c6
be
c6
ENDCHAR
STARTCHAR bar
ENCODING 124
SWIDTH 864 0
DWIDTH 9 0
BBX 7 3 1 1
ATTRIBUTES 0388
BITMAP
c6
fa
c6
ENDCHAR
STARTCHAR braceright
ENCODING 125
SWIDTH 672 0
DWIDTH 7 0
BBX 7 3 0 1
ATTRIBUTES 02bb
BITMAP
02
fe
02
ENDCHAR
STARTCHAR asciitilde
ENCODING 126
SWIDTH 480 0
DWIDTH 5 0
BBX 5 5 0 0
ATTRIBUTES 01f5
BITMAP
f8
88
88
88
f8
ENDCHAR
STARTCHAR C000177
ENCODING 127
SWIDTH 480 0
DWIDTH 5 0
BBX 5 5 0 0
ATTRIBUTES 01f5
BITMAP
f8
88
88
88
f8
ENDCHAR
STARTCHAR C000200
ENCODING 128
SWIDTH 576 0
DWIDTH 6 0
BBX 4 10 1 -2
ATTRIBUTES 0242
BITMAP
20
50
40
40
40
40
40
40
40
80
ENDCHAR
STARTCHAR C000201
ENCODING 129
SWIDTH 864 0
DWIDTH 9 0
BBX 6 10 1 -2
ATTRIBUTES 0356
BITMAP
24
58
48
48
48
48
48
48
48
90
ENDCHAR
STARTCHAR C000202
ENCODING 130
SWIDTH 1152 0
DWIDTH 12 0
BBX 9 10 1 -2
ATTRIBUTES 046c
BITMAP
2480
5980
4900
4900
4900
4900
4900
4900
4900
9200
ENDCHAR
STARTCHAR C000203
ENCODING 131
SWIDTH 576 0
DWIDTH 6 0
BBX 4 10 1 -2
ATTRIBUTES 0265
BITMAP
20
30
60
b0
b0
b0
60
20
20
40
ENDCHAR
STARTCHAR C000204
ENCODING 132
SWIDTH 864 0
DWIDTH 9 0
BBX 7 10 1 -2
ATTRIBUTES 037b
BITMAP
14
3a
78
6c
aa
6c
38
28
28
50
ENDCHAR
STARTCHAR C000205
ENCODING 133
SWIDTH 1152 0
DWIDTH 12 0
BBX 10 10 1 -2
ATTRIBUTES 048f
BITMAP
1480
3b40
3f00
69c0
a940
e9c0
3f00
2900
2900
5200
ENDCHAR
STARTCHAR C000206
ENCODING 134
SWIDTH 576 0
DWIDTH 6 0
BBX 5 8 0 0
ATTRIBUTES 0215
BITMAP
08
08
08
10
50
50
50
20
ENDCHAR
STARTCHAR C000207
ENCODING 135
SWIDTH 576 0
DWIDTH 6 0
BBX 5 8 0 0
ATTRIBUTES 0215
BITMAP
08
08
08
08
50
50
50
20
ENDCHAR
STARTCHAR C000210
ENCODING 136
SWIDTH 480 0
DWIDTH 5 0
BBX 5 8 0 0
ATTRIBUTES 0202
BITMAP
08
08
48
50
50
50
30
20
ENDCHAR
STARTCHAR C000211
ENCODING 137
SWIDTH 384 0
DWIDTH 4 0
BBX 3 8 0 0
ATTRIBUTES 0196
BITMAP
20
20
20
20
60
60
60
20
ENDCHAR
STARTCHAR C000212
ENCODING 138
SWIDTH 864 0
DWIDTH 9 0
BBX 8 9 0 -1
ATTRIBUTES 0336
BITMAP
e7
42
42
42
42
42
42
42
7e
ENDCHAR
STARTCHAR C000213
ENCODING 139
SWIDTH 864 0
DWIDTH 9 0
BBX 8 9 0 -1
ATTRIBUTES 0336
BITMAP
7e
42
42
42
42
42
42
42
e7
ENDCHAR
STARTCHAR C000214
ENCODING 140
SWIDTH 672 0
DWIDTH 7 0
BBX 7 9 0 -1
ATTRIBUTES 02c8
BITMAP
fc
42
20
10
10
20
40
42
fe
ENDCHAR
STARTCHAR C000215
ENCODING 141
SWIDTH 864 0
DWIDTH 9 0
BBX 8 9 0 -1
ATTRIBUTES 0334
BITMAP
ff
41
42
62
24
34
18
10
10
ENDCHAR
STARTCHAR C000216
ENCODING 142
SWIDTH 864 0
DWIDTH 9 0
BBX 9 8 0 0
ATTRIBUTES 0340
BITMAP
8080
4100
7f00
2200
2600
1400
1400
1c00
ENDCHAR
STARTCHAR C000217
ENCODING 143
SWIDTH 1728 0
DWIDTH 18 0
BBX 17 9 0 0
ATTRIBUTES 06a3
BITMAP
440000
440000
400000
44ff00
448900
448900
448900
448900
448900
ENDCHAR
STARTCHAR C000220
ENCODING 144
SWIDTH 288 0
DWIDTH 3 0
BBX 3 1 0 6
ATTRIBUTES 014c
BITMAP
c0
ENDCHAR
STARTCHAR C000221
ENCODING 145
SWIDTH 288 0
DWIDTH 3 0
BBX 3 1 0 6
ATTRIBUTES 014c
BITMAP
e0
ENDCHAR
STARTCHAR C000222
ENCODING 146
SWIDTH 288 0
DWIDTH 3 0
BBX 3 1 0 6
ATTRIBUTES 014c
BITMAP
c0
ENDCHAR
STARTCHAR C000223
ENCODING 147
SWIDTH 288 0
DWIDTH 3 0
BBX 2 2 1 5
ATTRIBUTES 014c
BITMAP
80
80
ENDCHAR
STARTCHAR C000224
ENCODING 148
SWIDTH 288 0
DWIDTH 3 0
BBX 2 1 0 6
ATTRIBUTES 014c
BITMAP
40
ENDCHAR
STARTCHAR C000225
ENCODING 149
SWIDTH 288 0
DWIDTH 3 0
BBX 3 1 0 6
ATTRIBUTES 014c
BITMAP
e0
ENDCHAR
STARTCHAR C000226
ENCODING 150
SWIDTH 480 0
DWIDTH 5 0
BBX 5 1 0 6
ATTRIBUTES 01f4
BITMAP
f8
ENDCHAR
STARTCHAR C000227
ENCODING 151
SWIDTH 480 0
DWIDTH 5 0
BBX 5 2 0 6
ATTRIBUTES 01f4
BITMAP
f0
10
ENDCHAR
STARTCHAR C000230
ENCODING 152
SWIDTH 288 0
DWIDTH 3 0
BBX 1 1 1 6
ATTRIBUTES 0108
BITMAP
80
ENDCHAR
STARTCHAR C000231
ENCODING 153
SWIDTH 288 0
DWIDTH 3 0
BBX 2 1 0 6
ATTRIBUTES 0108
BITMAP
c0
ENDCHAR
STARTCHAR C000232
ENCODING 154
SWIDTH 384 0
DWIDTH 4 0
BBX 4 1 0 6
ATTRIBUTES 01a3
BITMAP
b0
ENDCHAR
STARTCHAR C000233
ENCODING 155
SWIDTH 288 0
DWIDTH 3 0
BBX 3 2 0 5
ATTRIBUTES 0103
BITMAP
e0
e0
ENDCHAR
STARTCHAR C000234
ENCODING 156
SWIDTH 768 0
DWIDTH 8 0
BBX 6 6 1 0
ATTRIBUTES 031a
BITMAP
10
30
48
48
44
84
ENDCHAR
STARTCHAR C000235
ENCODING 157
SWIDTH 768 0
DWIDTH 8 0
BBX 6 6 1 0
ATTRIBUTES 031a
BITMAP
84
44
48
28
30
10
ENDCHAR
STARTCHAR C000236
ENCODING 158
SWIDTH 480 0
DWIDTH 5 0
BBX 5 5 0 0
ATTRIBUTES 01f5
BITMAP
f8
88
88
88
f8
ENDCHAR
STARTCHAR C000237
ENCODING 159
SWIDTH 480 0
DWIDTH 5 0
BBX 5 5 0 0
ATTRIBUTES 01f5
BITMAP
f8
88
88
88
f8
ENDCHAR
STARTCHAR nobreakspace
ENCODING 160
SWIDTH 384 0
DWIDTH 4 0
BBX 2 11 1 -2
ATTRIBUTES 017e
BITMAP
40
80
80
40
c0
80
c0
40
80
80
40
ENDCHAR
STARTCHAR exclamdown
ENCODING 161
SWIDTH 384 0
DWIDTH 4 0
BBX 2 11 0 -2
ATTRIBUTES 017e
BITMAP
80
40
40
80
80
40
80
80
40
40
80
ENDCHAR
STARTCHAR cent
ENCODING 162
SWIDTH 288 0
DWIDTH 3 0
BBX 2 10 1 -2
ATTRIBUTES 0137
BITMAP
40
40
80
80
80
80
80
40
40
40
ENDCHAR
STARTCHAR sterling
ENCODING 163
SWIDTH 288 0
DWIDTH 3 0
BBX 2 10 1 -2
ATTRIBUTES 0137
BITMAP
80
80
40
40
40
40
40
80
80
80
ENDCHAR
STARTCHAR currency
ENCODING 164
SWIDTH 288 0
DWIDTH 3 0
BBX 3 10 0 -1
ATTRIBUTES 014f
BITMAP
20
20
40
40
80
80
80
40
20
20
ENDCHAR
STARTCHAR yen
ENCODING 165
SWIDTH 288 0
DWIDTH 3 0
BBX 3 10 0 -1
ATTRIBUTES 014f
BITMAP
80
80
40
40
20
20
20
40
40
80
ENDCHAR
STARTCHAR brokenbar
ENCODING 166
SWIDTH 288 0
DWIDTH 3 0
BBX 2 11 0 -2
ATTRIBUTES 0119
BITMAP
c0
80
80
80
80
80
80
80
80
80
c0
ENDCHAR
STARTCHAR section
ENCODING 167
SWIDTH 288 0
DWIDTH 3 0
BBX 2 11 0 -2
ATTRIBUTES 0119
BITMAP
c0
40
40
40
40
40
40
40
40
40
c0
ENDCHAR
STARTCHAR diaeresis
ENCODING 168
SWIDTH 384 0
DWIDTH 4 0
BBX 2 4 1 0
ATTRIBUTES 0157
BITMAP
c0
80
80
80
ENDCHAR
STARTCHAR copyright
ENCODING 169
SWIDTH 384 0
DWIDTH 4 0
BBX 2 9 0 0
ATTRIBUTES 0157
BITMAP
40
40
40
40
80
40
40
40
40
ENDCHAR
STARTCHAR ordfeminine
ENCODING 170
SWIDTH 384 0
DWIDTH 4 0
BBX 2 5 1 0
ATTRIBUTES 0157
BITMAP
80
80
80
80
40
ENDCHAR
STARTCHAR guillemotleft
ENCODING 171
SWIDTH 384 0
DWIDTH 4 0
BBX 2 4 0 0
ATTRIBUTES 0157
BITMAP
c0
40
40
40
ENDCHAR
STARTCHAR notsign
ENCODING 172
SWIDTH 384 0
DWIDTH 4 0
BBX 2 8 1 0
ATTRIBUTES 0157
BITMAP
80
80
80
c0
80
80
80
80
ENDCHAR
STARTCHAR hyphen
ENCODING 173
SWIDTH 384 0
DWIDTH 4 0
BBX 2 5 0 0
ATTRIBUTES 0157
BITMAP
40
40
40
40
80
ENDCHAR
STARTCHAR registered
ENCODING 174
SWIDTH 384 0
DWIDTH 4 0
BBX 1 4 1 0
ATTRIBUTES 0157
BITMAP
80
80
80
80
ENDCHAR
STARTCHAR macron
ENCODING 175
SWIDTH 384 0
DWIDTH 4 0
BBX 2 8 1 0
ATTRIBUTES 018d
BITMAP
40
40
80
80
80
80
80
80
ENDCHAR
STARTCHAR degree
ENCODING 176
SWIDTH 384 0
DWIDTH 4 0
BBX 1 4 1 0
ATTRIBUTES 018d
BITMAP
80
80
80
80
ENDCHAR
STARTCHAR plusminus
ENCODING 177
SWIDTH 384 0
DWIDTH 4 0
BBX 2 8 1 0
ATTRIBUTES 018d
BITMAP
80
80
80
80
80
80
40
40
ENDCHAR
STARTCHAR twosuperior
ENCODING 178
SWIDTH 384 0
DWIDTH 4 0
BBX 3 8 0 0
ATTRIBUTES 018d
BITMAP
40
40
40
20
20
20
20
20
ENDCHAR
STARTCHAR threesuperior
ENCODING 179
SWIDTH 384 0
DWIDTH 4 0
BBX 1 4 2 0
ATTRIBUTES 018d
BITMAP
80
80
80
80
ENDCHAR
STARTCHAR acute
ENCODING 180
SWIDTH 384 0
DWIDTH 4 0
BBX 2 8 1 0
ATTRIBUTES 018d
BITMAP
40
40
40
40
40
40
80
80
ENDCHAR
STARTCHAR mu
ENCODING 181
SWIDTH 384 0
DWIDTH 4 0
BBX 3 9 1 0
ATTRIBUTES 0169
BITMAP
e0
80
80
80
80
80
80
80
80
ENDCHAR
STARTCHAR paragraph
ENCODING 182
SWIDTH 384 0
DWIDTH 4 0
BBX 1 4 1 0
ATTRIBUTES 0169
BITMAP
80
80
80
80
ENDCHAR
STARTCHAR periodcentered
ENCODING 183
SWIDTH 384 0
DWIDTH 4 0
BBX 3 9 1 0
ATTRIBUTES 0169
BITMAP
80
80
80
80
80
80
80
80
e0
ENDCHAR
STARTCHAR cedilla
ENCODING 184
SWIDTH 384 0
DWIDTH 4 0
BBX 3 9 0 0
ATTRIBUTES 0169
BITMAP
e0
20
20
20
20
20
20
20
20
ENDCHAR
STARTCHAR onesuperior
ENCODING 185
SWIDTH 384 0
DWIDTH 4 0
BBX 1 4 2 0
ATTRIBUTES 0169
BITMAP
80
80
80
80
ENDCHAR
STARTCHAR masculine
ENCODING 186
SWIDTH 384 0
DWIDTH 4 0
BBX 3 9 0 0
ATTRIBUTES 0169
BITMAP
20
20
20
20
20
20
20
20
e0
ENDCHAR
STARTCHAR guillemotright
ENCODING 187
SWIDTH 480 0
DWIDTH 5 0
BBX 5 5 0 0
ATTRIBUTES 01f5
BITMAP
f8
88
88
88
f8
ENDCHAR
STARTCHAR onequarter
ENCODING 188
SWIDTH 384 0
DWIDTH 4 0
BBX 1 4 2 0
ATTRIBUTES 0169
BITMAP
80
80
80
80
ENDCHAR
STARTCHAR onehalf
ENCODING 189
SWIDTH 480 0
DWIDTH 5 0
BBX 4 11 0 -3
ATTRIBUTES 01b2
BITMAP
10
10
10
20
20
20
40
40
80
80
80
ENDCHAR
STARTCHAR threequarters
ENCODING 190
SWIDTH 480 0
DWIDTH 5 0
BBX 4 11 0 -3
ATTRIBUTES 01b2
BITMAP
80
80
80
40
40
40
20
20
10
10
10
ENDCHAR
STARTCHAR questiondown
ENCODING 191
SWIDTH 864 0
DWIDTH 9 0
BBX 7 7 1 0
ATTRIBUTES 037b
BITMAP
fe
82
82
82
82
82
fe
ENDCHAR
STARTCHAR Agrave
ENCODING 192
SWIDTH 288 0
DWIDTH 3 0
BBX 2 11 0 -2
ATTRIBUTES 0119
BITMAP
c0
80
80
80
80
80
80
80
80
80
80
ENDCHAR
STARTCHAR Aacute
ENCODING 193
SWIDTH 288 0
DWIDTH 3 0
BBX 2 11 0 -2
ATTRIBUTES 0119
BITMAP
80
80
80
80
80
80
80
80
80
80
c0
ENDCHAR
STARTCHAR Acircumflex
ENCODING 194
SWIDTH 288 0
DWIDTH 3 0
BBX 2 11 0 -2
ATTRIBUTES 0119
BITMAP
c0
40
40
40
40
40
40
40
40
40
40
ENDCHAR
STARTCHAR Atilde
ENCODING 195
SWIDTH 288 0
DWIDTH 3 0
BBX 2 11 0 -2
ATTRIBUTES 0119
BITMAP
40
40
40
40
40
40
40
40
40
40
c0
ENDCHAR
STARTCHAR Adiaeresis
ENCODING 196
SWIDTH 480 0
DWIDTH 5 0
BBX 5 5 0 0
ATTRIBUTES 01f5
BITMAP
f8
88
88
88
f8
ENDCHAR
STARTCHAR Aring
ENCODING 197
SWIDTH 384 0
DWIDTH 4 0
BBX 1 4 2 0
ATTRIBUTES 0196
BITMAP
80
80
80
80
ENDCHAR
STARTCHAR AE
ENCODING 198
SWIDTH 672 0
DWIDTH 7 0
BBX 6 8 0 0
ATTRIBUTES 027e
BITMAP
7c
20
20
20
40
40
40
40
ENDCHAR
STARTCHAR Ccedilla
ENCODING 199
SWIDTH 768 0
DWIDTH 8 0
BBX 7 7 0 0
ATTRIBUTES 0318
BITMAP
08
14
14
24
46
82
fe
ENDCHAR
STARTCHAR Egrave
ENCODING 200
SWIDTH 864 0
DWIDTH 9 0
BBX 7 8 1 0
ATTRIBUTES 0340
BITMAP
1c
66
42
ca
b6
84
cc
70
ENDCHAR
STARTCHAR Eacute
ENCODING 201
SWIDTH 864 0
DWIDTH 9 0
BBX 8 7 0 0
ATTRIBUTES 0338
BITMAP
04
0c
14
16
22
42
c7
ENDCHAR
STARTCHAR Ecircumflex
ENCODING 202
SWIDTH 672 0
DWIDTH 7 0
BBX 7 7 0 0
ATTRIBUTES 02cc
BITMAP
3e
00
24
3c
04
82
fc
ENDCHAR
STARTCHAR Ediaeresis
ENCODING 203
SWIDTH 864 0
DWIDTH 9 0
BBX 9 8 0 0
ATTRIBUTES 0369
BITMAP
7f00
2100
2100
2200
2200
4200
4200
4600
ENDCHAR
STARTCHAR Igrave
ENCODING 204
SWIDTH 672 0
DWIDTH 7 0
BBX 7 8 0 0
ATTRIBUTES 02ce
BITMAP
3e
20
10
18
10
60
44
fc
ENDCHAR
STARTCHAR Iacute
ENCODING 205
SWIDTH 672 0
DWIDTH 7 0
BBX 6 7 1 0
ATTRIBUTES 02bd
BITMAP
44
28
30
20
20
20
40
ENDCHAR
STARTCHAR Icircumflex
ENCODING 206
SWIDTH 768 0
DWIDTH 8 0
BBX 6 7 1 0
ATTRIBUTES 02ea
BITMAP
10
78
a4
a4
f8
20
20
ENDCHAR
STARTCHAR Idiaeresis
ENCODING 207
SWIDTH 768 0
DWIDTH 8 0
BBX 8 7 0 0
ATTRIBUTES 0322
BITMAP
4a
4a
54
38
10
10
30
ENDCHAR
STARTCHAR ETH
ENCODING 208
SWIDTH 864 0
DWIDTH 9 0
BBX 8 8 0 0
ATTRIBUTES 0379
BITMAP
1e
33
61
41
41
22
a5
e6
ENDCHAR
STARTCHAR Ntilde
ENCODING 209
SWIDTH 864 0
DWIDTH 9 0
BBX 6 5 1 0
ATTRIBUTES 0343
BITMAP
74
4c
88
98
e4
ENDCHAR
STARTCHAR Ograve
ENCODING 210
SWIDTH 672 0
DWIDTH 7 0
BBX 6 10 0 -2
ATTRIBUTES 02a5
BITMAP
1c
34
2c
30
2c
44
48
70
40
40
ENDCHAR
STARTCHAR Oacute
ENCODING 211
SWIDTH 672 0
DWIDTH 7 0
BBX 6 7 1 -2
ATTRIBUTES 02b2
BITMAP
44
48
30
20
60
a0
40
ENDCHAR
STARTCHAR Ocircumflex
ENCODING 212
SWIDTH 672 0
DWIDTH 7 0
BBX 6 8 1 0
ATTRIBUTES 0290
BITMAP
38
20
20
30
48
88
98
60
ENDCHAR
STARTCHAR Otilde
ENCODING 213
SWIDTH 576 0
DWIDTH 6 0
BBX 4 6 1 0
ATTRIBUTES 021e
BITMAP
30
40
80
f0
80
60
ENDCHAR
STARTCHAR Odiaeresis
ENCODING 214
SWIDTH 672 0
DWIDTH 7 0
BBX 6 10 1 -2
ATTRIBUTES 02ae
BITMAP
0c
78
40
40
80
80
80
f8
08
30
ENDCHAR
STARTCHAR multiply
ENCODING 215
SWIDTH 672 0
DWIDTH 7 0
BBX 5 8 1 -2
ATTRIBUTES 02ac
BITMAP
b8
48
48
88
90
90
10
00
ENDCHAR
STARTCHAR Ooblique
ENCODING 216
SWIDTH 672 0
DWIDTH 7 0
BBX 5 8 1 0
ATTRIBUTES 02d0
BITMAP
30
48
48
88
f8
90
90
60
ENDCHAR
STARTCHAR Ugrave
ENCODING 217
SWIDTH 384 0
DWIDTH 4 0
BBX 2 5 1 0
ATTRIBUTES 0191
BITMAP
80
80
80
80
c0
ENDCHAR
STARTCHAR Uacute
ENCODING 218
SWIDTH 672 0
DWIDTH 7 0
BBX 5 5 1 0
ATTRIBUTES 028e
BITMAP
48
50
e0
90
90
ENDCHAR
STARTCHAR Ucircumflex
ENCODING 219
SWIDTH 672 0
DWIDTH 7 0
BBX 6 8 0 0
ATTRIBUTES 02b2
BITMAP
60
20
10
10
70
48
48
8c
ENDCHAR
STARTCHAR Udiaeresis
ENCODING 220
SWIDTH 672 0
DWIDTH 7 0
BBX 6 7 0 -2
ATTRIBUTES 02b4
BITMAP
44
44
48
48
78
80
80
ENDCHAR
STARTCHAR Yacute
ENCODING 221
SWIDTH 672 0
DWIDTH 7 0
BBX 6 5 0 0
ATTRIBUTES 02b2
BITMAP
44
24
28
30
20
ENDCHAR
STARTCHAR THORN
ENCODING 222
SWIDTH 672 0
DWIDTH 7 0
BBX 5 10 1 -2
ATTRIBUTES 027f
BITMAP
b8
40
40
78
40
80
80
f0
10
60
ENDCHAR
STARTCHAR ssharp
ENCODING 223
SWIDTH 672 0
DWIDTH 7 0
BBX 5 6 1 0
ATTRIBUTES 0289
BITMAP
30
48
88
88
90
60
ENDCHAR
STARTCHAR agrave
ENCODING 224
SWIDTH 864 0
DWIDTH 9 0
BBX 7 5 1 0
ATTRIBUTES 0354
BITMAP
fe
48
48
48
88
ENDCHAR
STARTCHAR aacute
ENCODING 225
SWIDTH 672 0
DWIDTH 7 0
BBX 6 8 0 -2
ATTRIBUTES 0294
BITMAP
1c
24
24
44
48
70
40
80
ENDCHAR
STARTCHAR acircumflex
ENCODING 226
SWIDTH 768 0
DWIDTH 8 0
BBX 7 6 1 0
ATTRIBUTES 0306
BITMAP
30
4e
88
88
90
60
ENDCHAR
STARTCHAR atilde
ENCODING 227
SWIDTH 672 0
DWIDTH 7 0
BBX 6 5 1 0
ATTRIBUTES 02a3
BITMAP
fc
20
20
20
20
ENDCHAR
STARTCHAR adiaeresis
ENCODING 228
SWIDTH 672 0
DWIDTH 7 0
BBX 5 6 1 0
ATTRIBUTES 0292
BITMAP
48
88
88
88
90
60
ENDCHAR
STARTCHAR aring
ENCODING 229
SWIDTH 864 0
DWIDTH 9 0
BBX 7 10 1 -2
ATTRIBUTES 036c
BITMAP
08
08
08
34
52
92
94
78
20
20
ENDCHAR
STARTCHAR ae
ENCODING 230
SWIDTH 672 0
DWIDTH 7 0
BBX 6 7 0 -2
ATTRIBUTES 02bb
BITMAP
44
28
28
30
50
88
88
ENDCHAR
STARTCHAR ccedilla
ENCODING 231
SWIDTH 864 0
DWIDTH 9 0
BBX 7 8 1 -2
ATTRIBUTES 038e
BITMAP
10
92
92
92
9c
70
20
20
ENDCHAR
STARTCHAR egrave
ENCODING 232
SWIDTH 960 0
DWIDTH 10 0
BBX 8 6 1 0
ATTRIBUTES 03e4
BITMAP
01
49
89
91
9a
6c
ENDCHAR
STARTCHAR eacute
ENCODING 233
SWIDTH 576 0
DWIDTH 6 0
BBX 4 6 1 0
ATTRIBUTES 0217
BITMAP
70
40
40
e0
80
60
ENDCHAR
STARTCHAR ecircumflex
ENCODING 234
SWIDTH 672 0
DWIDTH 7 0
BBX 6 8 1 0
ATTRIBUTES 02cc
BITMAP
30
48
88
88
fc
10
b0
40
ENDCHAR
STARTCHAR ediaeresis
ENCODING 235
SWIDTH 960 0
DWIDTH 10 0
BBX 10 5 0 0
ATTRIBUTES 03e2
BITMAP
ffc0
2480
4c80
4d00
3600
ENDCHAR
STARTCHAR igrave
ENCODING 236
SWIDTH 672 0
DWIDTH 7 0
BBX 5 8 1 -2
ATTRIBUTES 029a
BITMAP
38
48
88
88
90
e0
80
70
ENDCHAR
STARTCHAR iacute
ENCODING 237
SWIDTH 672 0
DWIDTH 7 0
BBX 5 8 1 -2
ATTRIBUTES 027c
BITMAP
38
40
80
80
80
f0
10
60
ENDCHAR
STARTCHAR icircumflex
ENCODING 238
SWIDTH 960 0
DWIDTH 10 0
BBX 8 8 1 -2
ATTRIBUTES 039f
BITMAP
77
99
99
92
96
78
10
20
ENDCHAR
STARTCHAR idiaeresis
ENCODING 239
SWIDTH 672 0
DWIDTH 7 0
BBX 5 8 1 0
ATTRIBUTES 028e
BITMAP
e0
90
08
38
48
88
90
e0
ENDCHAR
STARTCHAR eth
ENCODING 240
SWIDTH 576 0
DWIDTH 6 0
BBX 6 9 0 0
ATTRIBUTES 024d
BITMAP
0c
14
28
30
20
40
48
50
60
ENDCHAR
STARTCHAR ntilde
ENCODING 241
SWIDTH 288 0
DWIDTH 3 0
BBX 2 5 1 0
ATTRIBUTES 0151
BITMAP
40
40
80
80
80
ENDCHAR
STARTCHAR ograve
ENCODING 242
SWIDTH 384 0
DWIDTH 4 0
BBX 5 7 -1 -2
ATTRIBUTES 0187
BITMAP
08
08
10
10
10
20
c0
ENDCHAR
STARTCHAR oacute
ENCODING 243
SWIDTH 768 0
DWIDTH 8 0
BBX 7 8 0 -2
ATTRIBUTES 02d5
BITMAP
20
5e
62
42
64
78
a0
40
ENDCHAR
STARTCHAR ocircumflex
ENCODING 244
SWIDTH 672 0
DWIDTH 7 0
BBX 5 7 1 0
ATTRIBUTES 0298
BITMAP
08
08
08
f8
08
08
f8
ENDCHAR
STARTCHAR otilde
ENCODING 245
SWIDTH 768 0
DWIDTH 8 0
BBX 6 8 1 0
ATTRIBUTES 0300
BITMAP
f0
18
0c
04
84
84
88
f0
ENDCHAR
STARTCHAR odiaeresis
ENCODING 246
SWIDTH 672 0
DWIDTH 7 0
BBX 5 9 1 -1
ATTRIBUTES 0274
BITMAP
78
48
40
40
60
80
80
88
70
ENDCHAR
STARTCHAR division
ENCODING 247
SWIDTH 864 0
DWIDTH 9 0
BBX 7 7 1 0
ATTRIBUTES 036c
BITMAP
ee
46
44
82
82
c6
38
ENDCHAR
STARTCHAR oslash
ENCODING 248
SWIDTH 768 0
DWIDTH 8 0
BBX 8 10 0 -4
ATTRIBUTES 0304
BITMAP
34
2c
44
48
4a
3c
68
50
90
00
ENDCHAR
STARTCHAR ugrave
ENCODING 249
SWIDTH 768 0
DWIDTH 8 0
BBX 8 9 0 0
ATTRIBUTES 032f
BITMAP
0c
14
28
3c
34
24
45
46
44
ENDCHAR
STARTCHAR uacute
ENCODING 250
SWIDTH 672 0
DWIDTH 7 0
BBX 7 10 0 -4
ATTRIBUTES 02a5
BITMAP
20
78
10
20
2c
78
48
48
90
00
ENDCHAR
STARTCHAR ucircumflex
ENCODING 251
SWIDTH 576 0
DWIDTH 6 0
BBX 6 8 0 0
ATTRIBUTES 0253
BITMAP
c0
70
20
50
50
58
88
8c
ENDCHAR
STARTCHAR udiaeresis
ENCODING 252
SWIDTH 576 0
DWIDTH 6 0
BBX 7 9 0 0
ATTRIBUTES 024d
BITMAP
0c
7e
28
30
20
40
48
50
60
ENDCHAR
STARTCHAR yacute
ENCODING 253
SWIDTH 672 0
DWIDTH 7 0
BBX 6 6 1 0
ATTRIBUTES 029b
BITMAP
f0
08
08
08
08
fc
ENDCHAR
STARTCHAR thorn
ENCODING 254
SWIDTH 480 0
DWIDTH 5 0
BBX 4 6 0 0
ATTRIBUTES 01ce
BITMAP
c0
20
20
20
60
d0
ENDCHAR
STARTCHAR ydiaeresis
ENCODING 255
SWIDTH 576 0
DWIDTH 6 0
BBX 6 6 0 0
ATTRIBUTES 025e
BITMAP
fc
08
08
08
08
08
ENDCHAR
ENDFONT
